<svg width="20" height="20" viewBox="0 0 20 20" fill="none" xmlns="http://www.w3.org/2000/svg">
<g opacity="0.2">
<rect opacity="0.01" width="20" height="20" fill="black"/>
<path fill-rule="evenodd" clip-rule="evenodd" d="M1.66669 10C1.66669 5.39765 5.39765 1.66669 10 1.66669C12.2102 1.66669 14.3298 2.54466 15.8926 4.10746C17.4554 5.67027 18.3334 7.78988 18.3334 10C18.3334 14.6024 14.6024 18.3334 10 18.3334C5.39765 18.3334 1.66669 14.6024 1.66669 10ZM3.33335 10C3.33335 13.6819 6.31812 16.6667 10 16.6667C11.7681 16.6667 13.4638 15.9643 14.7141 14.7141C15.9643 13.4638 16.6667 11.7681 16.6667 10C16.6667 6.31812 13.6819 3.33335 10 3.33335C6.31812 3.33335 3.33335 6.31812 3.33335 10Z" fill="black"/>
<path d="M10 14.1667C10.4603 14.1667 10.8334 13.7936 10.8334 13.3333C10.8334 12.8731 10.4603 12.5 10 12.5C9.53978 12.5 9.16669 12.8731 9.16669 13.3333C9.16669 13.7936 9.53978 14.1667 10 14.1667Z" fill="black"/>
<path d="M10 5.83331C9.53978 5.83331 9.16669 6.20641 9.16669 6.66665V10.8333C9.16669 11.2936 9.53978 11.6666 10 11.6666C10.4603 11.6666 10.8334 11.2936 10.8334 10.8333V6.66665C10.8334 6.20641 10.4603 5.83331 10 5.83331Z" fill="black"/>
</g>
</svg>
