<svg width="17" height="14" viewBox="0 0 17 14" fill="none" xmlns="http://www.w3.org/2000/svg">
<path fill-rule="evenodd" clip-rule="evenodd" d="M7.93792 13.3954C8.08732 13.5436 8.28957 13.6262 8.5 13.625C8.71043 13.6262 8.91268 13.5436 9.06208 13.3954L15.2133 7.23626C16.8192 5.61363 16.8192 3.00057 15.2133 1.37793C13.5943 -0.236572 10.9741 -0.236572 9.355 1.37793L8.5 2.23293L7.645 1.37793C6.02593 -0.236572 3.40574 -0.236572 1.78667 1.37793C0.180811 3.00057 0.180811 5.61363 1.78667 7.23626L7.93792 13.3954ZM2.91083 2.49418C3.38891 2.01493 4.03891 1.74695 4.71583 1.75001C5.39276 1.74695 6.04276 2.01493 6.52083 2.49418L7.93792 3.91918C8.08657 4.06905 8.28891 4.15335 8.5 4.15335C8.71109 4.15335 8.91344 4.06905 9.06208 3.91918L10.4792 2.49418C11.4922 1.5371 13.0761 1.5371 14.0892 2.49418C15.0845 3.49477 15.0845 5.1115 14.0892 6.1121L8.5 11.7092L2.91083 6.1121C1.91548 5.1115 1.91548 3.49477 2.91083 2.49418Z" fill="black"/>
</svg>
